<svg width="144" height="44" xmlns="http://www.w3.org/2000/svg" xmlns:xlink="http://www.w3.org/1999/xlink"><defs><filter x="-1.4%" y="-2.4%" width="102.8%" height="109.6%" filterUnits="objectBoundingBox" id="a"><feOffset dy="1" in="SourceAlpha" result="shadowOffsetOuter1"/><feGaussianBlur stdDeviation=".5" in="shadowOffsetOuter1" result="shadowBlurOuter1"/><feColorMatrix values="0 0 0 0 0 0 0 0 0 0 0 0 0 0 0 0 0 0 0.245187953 0" in="shadowBlurOuter1"/></filter><path d="M144.19 53.67c.344-.582.76-1.117 1.158-1.66.961-1.297 1.942-2.579 2.856-3.909.205-.313.433-.62.578-.968.066-.136-.015-.283-.052-.416-.464-1.19-1.024-2.341-1.455-3.543-.137-.354-.144-.737-.13-1.112.044-1.002.114-2.003.194-3.005.114 1.073.17 2.15.288 3.224.387-.684.55-1.468.655-2.24.145-1.145.1-2.36-.43-3.408-.558-1.153-1.69-1.982-2.938-2.232-.572-.103-1.158-.054-1.73.025-1.406.177-2.824.113-4.236.087-1.127.05-2.271.044-3.372-.229-.768-.189-1.515-.536-2.077-1.103-.53-.509-.873-1.167-1.298-1.758-.404-.582-.86-1.124-1.294-1.686-.538-.712-.986-1.488-1.383-2.287.394-.187.872-.303 1.127-.688a.373.373 0 00-.158-.563c-.572-.246-1.217-.206-1.822-.142a7.289 7.289 0 00-.555-.36l.091-.18c.7.32 1.569.434 2.246-.004.72-.418 1.098-1.261 1.053-2.078.597.488 1.46.687 2.166.32.731-.332 1.019-1.154 1.133-1.891.628-.148 1.264-.361 1.75-.8.483-.432.886-.947 1.256-1.477.234-.36.51-.722.562-1.164-.398-.12-.678.236-.89.513a6.861 6.861 0 01-1.3 1.406c-.134-.953.25-1.986 1.059-2.533.214-.15.513-.319.492-.62.001-.185-.212-.169-.326-.097-.752.385-1.42.996-1.745 1.787-.249.59-.254 1.247-.119 1.863a9.17 9.17 0 01-.721.235 7.534 7.534 0 00-.105-.919l-.214-.111c-.098.087-.192.179-.285.273.041.292.077.584.09.88-1.059.287-2.158.393-3.212.705-.151-.222-.196-.658-.529-.637-.332.21-.108.584.025.844-.911.466-1.773 1.064-2.41 1.876-.132.195-.342.304-.551.398.087-.764.297-1.524.695-2.187.305-.511.744-.92 1.137-1.358.562-.62 1.201-1.167 1.707-1.834.386-.499.555-1.12.683-1.728a2.95 2.95 0 00.037-1.172.332.332 0 00-.408.293c-.11.556-.201 1.126-.465 1.636-.231.471-.592.86-.933 1.251-.338-.482-.458-1.122-.247-1.681.082-.284.314-.483.467-.725.017-.176-.09-.392-.29-.373-.564.448-.931 1.175-.86 1.904.027.474.272.898.526 1.287-.62.602-1.31 1.143-1.807 1.86-.142-.577-.025-1.233.406-1.658.158-.127.117-.377-.027-.497-.183-.073-.3.097-.413.208-.378.413-.626.961-.614 1.528 0 .365.137.709.283 1.038-.377.728-.638 1.52-.7 2.34-.35-.04-.686-.242-.793-.594-.232-.725-.024-1.523.342-2.167.082-.158.23-.349.107-.526-.06-.174-.323-.158-.386.007-.492.813-.911 1.757-.775 2.73.052.422.342.748.62 1.047-.378.063-.814-.003-1.052-.336-.494-.664-.462-1.566-.241-2.325.082-.233-.152-.39-.356-.402-.311.772-.435 1.646-.245 2.462.182.769.918 1.384 1.72 1.356.385-.001.738-.174 1.07-.352.024.171.05.34.078.51-.683.3-1.338.661-2.047.896-.926.306-1.837.655-2.752.99-.119.057-.291.09-.314.247-.028.239-.07.526.105.722.21.251.453.51.787.58 1.185.312 2.372.622 3.56.92.108.034.277.056.262.209.106 1.007-.166 2.006-.42 2.973-.313 1.024-.393 2.162.034 3.165-.694-.486-1.391-.967-2.087-1.452-.36-.263-.834-.245-1.256-.196-.755.107-1.477.368-2.175.666a15.47 15.47 0 00-2.975 1.688c-.465.357-.813 1.048-.501 1.607.282.61.564 1.222.835 1.838.298-.155.588-.322.88-.486-.261-.19-.549-.433-.534-.79-.032-.513.52-.96 1.011-.788.36.09.55.45.599.79.133-.22.339-.408.607-.43.557-.09 1.058.542.841 1.063-.1.342-.439.52-.771.56.304.265.419.737.184 1.084-.251.445-.953.494-1.266.09-.19-.2-.187-.485-.188-.741-.305.143-.612.282-.918.423.28.635.619 1.243.915 1.872.892-.414 1.765-.862 2.655-1.277.944 2.255 1.898 4.509 2.84 6.766-.411 1.31-.823 2.62-1.222 3.934.983.361 1.965.728 2.952 1.083-.582.295-1.16.617-1.639 1.067-.837.74-1.352 1.802-1.475 2.91 1.167-.996 2.586-1.643 4.026-2.14 2.022-.68 4.146-1.014 6.27-1.16 3.897-.255 7.808.062 11.67.59 1.084.156 2.179.332 3.277.246-.926-.245-1.871-.403-2.796-.652-.814-.221-1.627-.445-2.45-.63.273-.085.604-.128.767-.395m-10.046-31.645c-.181.469-.462.99-.993 1.116-.531.103-1.029-.22-1.398-.57.79-.214 1.587-.399 2.39-.546m-3.3.852c.048.64-.013 1.396-.543 1.835-.47.383-1.134.28-1.666.097.54-.826 1.298-1.53 2.208-1.932m-4.28 29.479c-.507.16-1.08-.173-1.254-.661-.232-.55.058-1.261.627-1.462.654-.284 1.442.31 1.415 1.006.045.497-.308.988-.788 1.117m3.232-7.39c-.08 2.7-.327 5.391-.575 8.08-.42.09-.84.182-1.256.287.375-1.042.765-2.078 1.13-3.124-.92-.52-1.828-1.058-2.747-1.577-.13-.078-.281-.155-.333-.308-1.634-3.862-3.27-7.722-4.902-11.584.503-.19 1.008-.378 1.529-.514.227-.066.446.056.63.175.318.214.595.479.862.752.924.964 1.714 2.042 2.58 3.056.508.598 1.333.765 2.082.742-.544-.424-1.05-.92-1.364-1.543-.664-1.286-.716-2.82-.395-4.21.08 1.965.717 3.897 1.827 5.52.292.458.724.86.814 1.418.167.933.115 1.885.118 2.83m6.083 7.907c-1.861-.142-3.736-.18-5.594.028.517-2.648 1.041-5.296 1.634-7.928.172-.717.315-1.446.578-2.14 1.07.193 2.167.17 3.242.015.855-.105 1.711-.327 2.578-.231.69.066 1.303.487 1.69 1.049.664.942.999 2.063 1.309 3.16.123.363-.134.691-.323.977-.654.893-1.452 1.668-2.238 2.443a65.497 65.497 0 01-2.876 2.627m6.521.944c-.647-.094-1.283-.247-1.929-.35a59.348 59.348 0 00-3.678-.517l-.05.1a.911.911 0 01-.003-.129c.426-.035.824-.22 1.154-.484 1.125-.877 2.17-1.854 3.192-2.847.918-.924 1.872-1.825 2.65-2.875-.473-.596-.82-1.291-1.082-2.003-.062-.516.138-1.037.365-1.494-1.04-.474-1.782-1.42-2.193-2.465a8.805 8.805 0 01-.631-3.16c.527 2.253 1.718 4.356 3.432 5.916.901.97 1.713 2.03 2.4 3.162.243.45.591.98.33 1.5-.478 1.118-1.226 2.091-1.933 3.072a75.17 75.17 0 01-2.024 2.574m82.885-2.264c.495.492 1.029.94 1.552 1.398-.923.007-1.845 0-2.768.003-.617 0-1.248-.15-1.745-.53-.589-.433-.985-1.06-1.437-1.623-1.498-1.938-2.998-3.874-4.492-5.814-.395-.496-.83-1.008-1.438-1.241-.443-.182-.926-.232-1.398-.28 0 2.029-.003 4.057.002 6.085.02 1.16.075 2.403.733 3.403-1.555 0-3.111.002-4.666-.002.467-.698.755-1.509.842-2.346.09-.833.043-1.673.055-2.51V37.064c-.008-1.216-.042-2.519-.727-3.57 2.292.009 4.576-.213 6.865-.283 1.449-.063 2.972-.064 4.305.584.867.413 1.601 1.141 1.929 2.052.5 1.358.22 2.937-.628 4.094-.995 1.379-2.522 2.27-4.089 2.854 1.833 2.328 3.695 4.63 5.542 6.947a23.36 23.36 0 001.563 1.812m-10.074-9.196c1.274-.048 2.63-.393 3.541-1.339.899-.929 1.168-2.292 1.083-3.543-.046-.724-.238-1.487-.76-2.018-.532-.544-1.293-.77-2.023-.89-1.218-.193-2.455-.132-3.684-.14-.05.503-.067 1.008-.07 1.512v6.334a11.95 11.95 0 001.913.084m-7.436 9.076c.521.542 1.102 1.021 1.666 1.519-.841.007-1.682-.001-2.524.004-.56.012-1.143-.047-1.645-.317-.552-.286-.96-.772-1.334-1.258-1.632-2.116-3.27-4.228-4.9-6.347-.307-.385-.627-.774-1.035-1.057-.54-.366-1.205-.45-1.838-.51v4.637c.012 1.152-.052 2.314.174 3.452.099.496.286.974.561 1.398h-4.667c.646-.946.904-2.104.894-3.24-.001-4.397.005-8.793-.003-13.192-.027-1.04-.133-2.14-.725-3.03 2.804.013 5.597-.323 8.399-.303 1.381.043 2.86.372 3.872 1.374.9.86 1.216 2.188 1.027 3.392-.162 1.1-.777 2.088-1.57 2.848-.953.899-2.121 1.54-3.343 1.992 1.796 2.279 3.623 4.535 5.428 6.805a26.267 26.267 0 001.563 1.833m-11.61-9.16c1.537.171 3.198.175 4.59-.592 1.05-.564 1.727-1.668 1.89-2.833.118-.947.13-1.967-.307-2.84-.338-.677-1.025-1.105-1.74-1.292-1.422-.379-2.907-.273-4.362-.288-.097.984-.067 1.973-.071 2.96v4.884m53.86-19.084c1.09 1.019 1.412 2.638 1.15 4.065a4.393 4.393 0 01-2.1 3.024c-1.413.824-3.145.925-4.725.631-1.294-.24-2.542-1.014-3.099-2.24-.704-1.56-.533-3.525.528-4.886.922-1.196 2.448-1.772 3.922-1.84 1.512-.088 3.172.18 4.323 1.246m-.55 4.062c.084-.982-.033-2-.457-2.897-.294-.622-.776-1.167-1.394-1.476-.678-.338-1.464-.403-2.206-.301-.784.104-1.535.494-2.025 1.123-.593.744-.824 1.72-.795 2.66-.004 1.323.42 2.796 1.569 3.571.621.419 1.392.556 2.132.512.788-.033 1.585-.319 2.15-.882.62-.606.941-1.46 1.026-2.31m-44.112 1.149c.775.848 1.495 1.766 2.448 2.427-.53.008-1.06.017-1.589 0-.43-.022-.806-.274-1.076-.596-.774-.892-1.546-1.786-2.32-2.68-.247-.285-.483-.606-.83-.773-.254-.127-.54-.147-.817-.17-.003.88 0 1.765-.002 2.648.004.54.048 1.113.356 1.578-.771.002-1.541 0-2.312 0 .45-.587.458-1.35.437-2.057-.002-1.719.003-3.44-.002-5.16.004-.51-.064-1.037-.35-1.473 1.407.002 2.81-.14 4.218-.13.738.022 1.55.189 2.065.764.51.57.49 1.474.063 2.085-.502.733-1.331 1.156-2.15 1.438.603.714 1.243 1.397 1.86 2.099m-4.183-2.33c.835.064 1.75.088 2.486-.379.749-.464.966-1.508.658-2.298-.177-.455-.671-.664-1.12-.74-.654-.1-1.32-.103-1.981-.1-.094 1.17-.023 2.344-.043 3.517m38.556 7.425c.914.781 1.673 1.721 2.375 2.692.951 1.318 1.767 2.727 2.514 4.167.77 1.49 1.536 3.02 1.81 4.69.125.693.076 1.398.085 2.094-.003.966.009 1.93-.006 2.896-.025 1.005-.161 2.054-.712 2.92 1.496.003 2.993.001 4.49.001a4.095 4.095 0 01-.588-1.541c-.191-1.092-.14-2.208-.147-3.312-.011-.998.03-2.005.228-2.986.233-1.213.755-2.352 1.417-3.386.82-1.282 1.759-2.481 2.626-3.73 1.064-1.502 2.135-3 3.195-4.505-1.41-.008-2.821 0-4.232-.005.453.46.591 1.143.428 1.758-.326 1.311-1.056 2.47-1.764 3.605-.805 1.312-1.635 2.609-2.417 3.936-.103.14-.232.392-.443.274-.232-.24-.285-.592-.42-.888a152.473 152.473 0 00-1.803-4.148c-.597-1.282-1.195-2.567-1.932-3.776-.277-.487-.826-.74-1.373-.745-1.11-.03-2.221-.01-3.33-.011m-12.485-.003c.719 1.102.73 2.472.733 3.742v11.19c.003 1.532.032 3.193-.832 4.531 3.372 0 6.742.002 10.113-.002a60.256 60.256 0 002.834-.156c.195-.935.398-1.87.603-2.803-1.211.954-2.72 1.459-4.239 1.639-.662.097-1.331.072-1.999.097-1.149.006-2.298-.014-3.448-.015l.001-8.18c1.93-.008 3.896.05 5.78-.448.801-.229 1.635-.587 2.125-1.297-2.63.205-5.267.221-7.903.21-.004-2.428-.004-4.857 0-7.287 1.32.015 2.642-.03 3.961.029 1.43.045 2.946.236 4.135 1.097-.034-.783-.09-1.564-.128-2.346-3.912-.003-7.824-.001-11.736-.001m-55.314 0c.694 1.082.726 2.416.733 3.66v11.037c.011 1.263.36 2.585 1.249 3.521.93.993 2.287 1.443 3.605 1.623 1.522.186 3.09.155 4.577-.246 1.383-.375 2.657-1.105 3.728-2.049.051-.004.153-.011.203-.017.013.705-.089 1.406-.113 2.11 1.331-.048 2.662-.122 3.994-.178-.656-.977-.698-2.192-.734-3.328-.005-3.65-.001-7.299-.002-10.948.006-1.14-.039-2.286.118-3.42a4.412 4.412 0 01.623-1.764c-1.5-.002-3-.003-4.498 0 .538.84.682 1.856.708 2.835.055.81.022 1.62.031 2.432-.007 2.012.04 4.027-.104 6.036-.053 1.267-.043 2.555-.387 3.788-.236.874-.691 1.732-1.445 2.264-.93.67-2.118.825-3.233.82-1.235-.014-2.537-.238-3.542-1.003-.84-.637-1.345-1.624-1.557-2.643-.25-1.056-.178-2.146-.187-3.222v-7.487c.006-1.296.01-2.692.735-3.821h-4.502m-12.478.73c-.956.621-1.711 1.578-2.003 2.688-.302 1.136-.25 2.413.354 3.445.553.957 1.464 1.64 2.399 2.198 1.503.896 3.162 1.507 4.618 2.485.848.573 1.634 1.343 1.925 2.353.302 1.119.12 2.403-.62 3.317-.765.95-1.992 1.4-3.178 1.485-1.337.09-2.726-.105-3.926-.725-1.054-.526-1.87-1.403-2.58-2.322-.01 1.078-.005 2.156-.002 3.234 1.665.577 3.41.914 5.167 1.044 1.64.093 3.308-.2 4.802-.884 1.139-.524 2.19-1.308 2.873-2.372.8-1.234 1.007-2.85.494-4.234-.373-1.008-1.158-1.8-2.024-2.404-1.42-.99-3.052-1.604-4.562-2.433-.802-.447-1.597-.96-2.156-1.703-.987-1.297-.741-3.394.596-4.36.976-.714 2.237-.84 3.41-.793.784.027 1.586.106 2.307.438.705.312 1.291.825 1.852 1.344.01-.944.006-1.888.003-2.832-1.74-.003-3.47-.186-5.21-.187-1.578.015-3.201.344-4.539 1.219m93.22-12.08c.303.46.325 1.024.33 1.559v5.078c-.022.692.043 1.447-.36 2.054.741.002 1.482 0 2.221.002-.255-.396-.342-.87-.342-1.334-.004-.873 0-1.749-.001-2.623.825-.006 1.657.013 2.477-.118.533-.09 1.106-.239 1.477-.664-1.316.093-2.637.089-3.954.087v-3.487c.907.014 1.817-.042 2.72.042.527.042 1.038.252 1.4.644.017-.39.013-.782.008-1.174-.571-.119-1.156-.045-1.734-.066-1.414 0-2.828.002-4.243 0m-36.628 0c.254.39.35.857.349 1.319.004 1.878 0 3.758.002 5.635.01.594-.004 1.227-.345 1.739.74-.003 1.482 0 2.223-.002-.384-.584-.352-1.304-.346-1.974v-4.672c-.004-.69-.048-1.437.346-2.044l-2.23-.001m-24.52.001c.389.607.35 1.35.358 2.04v4.753c-.006.65-.036 1.34-.41 1.898h3.846c.871-.003 1.747.024 2.615-.074.102-.413.202-.827.3-1.24a4.323 4.323 0 01-1.237.561c-1.172.321-2.396.163-3.593.2v-3.647c.962-.006 1.94.02 2.884-.204.401-.093.793-.268 1.074-.579-1.318.092-2.64.09-3.958.087v-3.243c.626.003 1.253-.007 1.88.005.743.016 1.512.1 2.162.488-.02-.35-.049-.697-.07-1.045h-5.851m-10.315.004c1.618 2.738 2.58 5.79 3.686 8.753.429-.002.859-.002 1.288 0 1.382-3.007 2.748-6.053 4.686-8.754-.694-.007-1.388-.001-2.082-.003.176.63-.055 1.266-.259 1.86-.59 1.622-1.389 3.157-2.096 4.729-.126.254-.184.573-.45.722a2.719 2.719 0 01-.24-.51c-.719-2.185-1.701-4.268-2.572-6.394-.073-.18-.19-.398-.412-.4-.516-.018-1.033-.003-1.549-.003m-2.712-.005c.281.44.353.967.352 1.479v5.794c0 .493-.08.999-.351 1.419h2.222c-.287-.443-.353-.98-.349-1.496v-5.719c-.004-.51.067-1.04.352-1.477h-2.226m-10.95.001c.463.441.525 1.112.522 1.717-.007 1.422.02 2.846-.018 4.27-.046.92-.154 1.863-.564 2.703.64.002 1.281.002 1.922 0-.402-.839-.485-1.781-.486-2.7-.001-1.181.002-2.363 0-3.546 0-.329-.016-.66.039-.984.267.2.47.47.687.72 1.903 2.19 3.8 4.384 5.703 6.574.398.003.795.003 1.191 0-.063-2.209-.012-4.42-.03-6.631-.02-.734.112-1.488.5-2.122-.58-.002-1.159-.002-1.738 0 .291.494.397 1.07.384 1.638-.01 1.725.022 3.45-.017 5.174-.264-.043-.398-.292-.565-.472-1.099-1.261-2.205-2.517-3.302-3.78-.589-.707-1.132-1.45-1.712-2.164-.152-.182-.327-.393-.587-.39-.642-.02-1.286 0-1.929-.007m-10.74-.001c.298.462.351 1.019.353 1.556-.002 1.533 0 3.066 0 4.599-.016.565.02 1.168.344 1.651.425.66 1.225.941 1.97 1.043 1.557.223 3.234-.077 4.494-1.06.004.33-.024.657-.043.983a50.358 50.358 0 001.986-.081c-.317-.459-.358-1.03-.357-1.568-.002-1.855-.004-3.71 0-5.564 0-.538.057-1.096.355-1.559h-2.226c.308.49.36 1.08.353 1.644-.01 1.206.036 2.415-.059 3.621-.015.737-.084 1.547-.582 2.133-.522.605-1.378.736-2.135.72-.766-.01-1.623-.191-2.115-.83-.45-.57-.48-1.33-.457-2.024.003-1.315-.006-2.63.003-3.944-.003-.462.096-.927.346-1.32h-2.23m72.638.004c-3.303-.007-6.606-.001-9.909-.002-.114.326-.221.653-.337.978.31-.162.648-.282 1.001-.283.811-.013 1.623-.002 2.434-.004v6.095c.003.648.006 1.339-.356 1.903.741.002 1.483-.002 2.225.002-.259-.393-.349-.868-.344-1.334-.002-2.222 0-4.445 0-6.668.69-.002 1.381.004 2.073-.001.61-.032 1.292-.105 1.733-.581 1.087.918 1.856 2.143 2.551 3.37.436.761.778 1.612.727 2.506-.041.903.141 1.896-.359 2.707h2.22a2.172 2.172 0 01-.324-1.009c-.06-.763-.064-1.538.046-2.296.126-.786.55-1.48 1.038-2.093a383.512 383.512 0 002.62-3.29c-.7-.008-1.4 0-2.1-.004.182.213.27.495.198.771-.196.725-.683 1.319-1.096 1.93-.358.501-.692 1.021-1.055 1.518-.088.16-.261.008-.285-.116-.457-1.298-1.062-2.558-1.889-3.663a.948.948 0 00-.812-.436m-20.65.787c.527-.575 1.304-.841 2.056-.95.75-.123 1.506-.027 2.258-.008.383.018.766.016 1.15.044-.004.42-.003.84-.004 1.257-.385-.304-.797-.608-1.29-.707-.698-.132-1.44-.155-2.121.076-.441.152-.841.503-.937.972-.123.443.011.94.343 1.257.512.512 1.21.765 1.858 1.055.745.333 1.544.646 2.103 1.267.408.437.55 1.08.413 1.657-.141.658-.643 1.174-1.203 1.514-.886.524-1.938.727-2.959.683-.881-.061-1.76-.204-2.603-.47l.001-1.44c.487.56 1.095 1.046 1.83 1.223.822.2 1.737.232 2.514-.151.513-.248.886-.78.882-1.359.03-.52-.27-1.003-.677-1.305-.723-.55-1.598-.822-2.402-1.22-.55-.272-1.117-.593-1.463-1.118-.453-.697-.311-1.682.25-2.277" id="b"/></defs><g transform="translate(-116 -16)" fill="none" fill-rule="evenodd"><use fill="#000" filter="url(#a)" xlink:href="#b"/><use fill="#FFF" xlink:href="#b"/></g></svg>